<?xml version="1.0" encoding="UTF-8"?>
<svg width="140px" height="25px" viewBox="0 0 140 25" version="1.1" xmlns="http://www.w3.org/2000/svg" xmlns:xlink="http://www.w3.org/1999/xlink">
    <title>footer_logo</title>
    <defs>
        <polygon id="path-1" points="1.56125113e-15 0 18.2114742 0 18.2114742 24.7531496 0 24.7531496"></polygon>
        <polygon id="path-3" points="0 -1.66533454e-16 20.4926216 -1.66533454e-16 20.4926216 20.4133859 0 20.4133859"></polygon>
    </defs>
    <g id="Page-1" stroke="none" stroke-width="1" fill="none" fill-rule="evenodd">
        <g id="footer_logo" transform="translate(-0.000040, 0.000000)">
            <g id="Group" transform="translate(29.956891, 0.508327)" fill="#FFFFFF" fill-rule="nonzero">
                <polygon id="Path" points="-7.10542736e-15 5.55111512e-16 18.0414464 5.55111512e-16 18.0414464 4.7472441 5.1061704 4.7472441 5.1061704 9.32500001 14.9780208 9.32500001 14.9780208 13.902559 5.1061704 13.902559 5.1061704 18.6490157 18.0414464 18.6490157 18.0414464 23.7362205 -7.10542736e-15 23.7362205"></polygon>
                <polygon id="Path" points="24.1694042 5.55111512e-16 28.7651354 5.55111512e-16 36.934929 10.1726378 45.104525 0 49.699861 0 49.699861 23.7362205 44.5938882 23.7362205 44.5938882 8.13799213 36.934929 17.6326772 29.2755746 8.13799213 29.2755746 23.7362205 24.1694042 23.7362205"></polygon>
                <polygon id="Path" points="55.8277595 23.7362598 60.9339299 23.7362598 60.9339299 3.937e-05 55.8277595 3.937e-05"></polygon>
            </g>
            <g id="Group" transform="translate(0.000040, 0.000000)">
                <path d="M105.69832,19.4972047 C109.953363,19.4972047 113.016987,16.445433 113.016987,12.3765354 C113.016987,8.30744095 109.953363,5.2556693 105.69832,5.2556693 L102.12406,5.2556693 L102.12406,19.4972047 L105.69832,19.4972047 Z M97.0178897,0.5084252 L105.69832,0.5084252 C113.016987,0.5084252 118.293303,5.76433071 118.293303,12.3765354 C118.293303,18.9887401 113.016987,24.2444488 105.69832,24.2444488 L97.0178897,24.2444488 L97.0178897,0.5084252 Z" id="Shape" fill="#FFFFFF" fill-rule="nonzero"></path>
                <g id="Clipped" transform="translate(0.021856, 0.000000)">
                    <mask id="mask-2" fill="white">
                        <use xlink:href="#path-1"></use>
                    </mask>
                    <g id="Path"></g>
                </g>
                <path d="M124.761297,17.6322834 C125.169965,18.1068897 125.646217,18.5480315 126.225228,18.9208661 C127.178127,19.5651575 128.573881,20.1751968 130.378104,20.1751968 C133.101237,20.1751968 134.29246,18.9887795 134.29246,17.4629921 C134.29246,13.427559 122.378457,15.2248031 122.378457,6.95118111 C122.378457,3.221063 125.612424,0 131.058888,0 C133.679853,0 135.722401,0.81358268 137.049977,1.62755906 C137.83273,2.10216536 138.479523,2.64468504 139.05814,3.221063 L135.654224,6.61220473 C135.279941,6.23897638 134.905263,5.9 134.462804,5.59468504 C133.679853,5.08602363 132.5906,4.57755906 131.228836,4.57755906 C128.642058,4.57755906 127.654972,5.59468504 127.654972,6.95118111 C127.654972,10.9862204 139.568974,9.18897638 139.568974,17.4629921 C139.568974,21.3622047 136.16486,24.7531496 130.548053,24.7531496 C127.450638,24.7531496 125.169965,23.8375984 123.638054,22.8883858 C122.71875,22.3454724 121.970185,21.7352362 121.357381,21.0230315 L124.761297,17.6322834 Z" id="Path" fill="#FFFFFF" fill-rule="nonzero"></path>
                <path d="M23.8283604,4.44456693 L23.8283604,14.0390551 L10.246291,14.0390551 L10.246291,0.50755906 L19.8760632,0.50755906 C22.058917,0.50755906 23.8283604,2.27015749 23.8283604,4.44456693" id="Path" fill="#0FE2BB" fill-rule="nonzero"></path>
                <g id="Clipped" transform="translate(0.000000, 0.090591)">
                    <mask id="mask-4" fill="white">
                        <use xlink:href="#path-3"></use>
                    </mask>
                    <g id="Path"></g>
                </g>
            </g>
            <path d="M17.9394771,14.0374404 L17.9394771,21.7008263 L4.29871607,21.7008263 C3.33475078,21.7008263 2.553184,20.9224798 2.553184,19.9622436 L2.553184,6.37405464 L10.2463305,6.37405464 L10.2463305,3.83074756 L0,3.83074756 L0,20.3071255 C0,22.4815349 1.76964108,24.2441334 3.95229722,24.2441334 L20.4926611,24.2441334 L20.4926611,14.0374404 L17.9394771,14.0374404 Z" id="Path" fill="#FFFFFF" fill-rule="nonzero"></path>
        </g>
    </g>
</svg>